# xmcd
#
# Track frame offsets: 
#        150
#        17074
#        31083
#        55339
#        74324
#        89335
#        110057
#        126099
#        141624
#        166256
#
# Disc length: 2386 seconds
#
# Revision: 0
# Processed by: cddbd v1.5.2PL0 Copyright (c) Steve Scherf et al.
# Submitted via: ExactAudioCopy v1.3
#
DISCID=8b09500a
DTITLE=Buddy Guy - Blues
DYEAR=2013
DGENRE=Chicago Blues, Electric Blues
TTITLE0=Meet Me In Chicago
TTITLE1=Too Damn Bad
TTITLE2=Evil Twin
TTITLE3=I Could Die Happy
TTITLE4=Never Gonna Change
TTITLE5=All That Makes Me Happy Is The Blues
TTITLE6=My Mama Loved Me
TTITLE7=Blues Don't Care
TTITLE8=I Came Up Hard
TTITLE9=Poison Ivy
EXTD=
EXTT0=
EXTT1=
EXTT2=
EXTT3=
EXTT4=
EXTT5=
EXTT6=
EXTT7=
EXTT8=
EXTT9=
PLAYORDER=
